<?xml version="1.0" standalone="no"?><!-- Generator: Adobe Fireworks CS6, Export SVG Extension by Aaron Beall (http://fireworks.abeall.com) . Version: 0.6.1  --><!DOCTYPE svg PUBLIC "-//W3C//DTD SVG 1.1//EN" "http://www.w3.org/Graphics/SVG/1.1/DTD/svg11.dtd"><svg id="project_icons-Page%201" viewBox="0 0 125 22" style="background-color:#ffffff00" version="1.1"	xmlns="http://www.w3.org/2000/svg" xmlns:xlink="http://www.w3.org/1999/xlink" xml:space="preserve"	x="0px" y="0px" width="125px" height="22px">	<g id="Layer%201">		<g id="Layer%202">			<rect visibility="hidden" x="-4.1667" y="-4.2308" width="137.5" height="32.1539" fill="#ff00ff7f"/>			<g>				<path d="M 62.1088 3.131 C 62.1088 4.8599 60.619 6.2608 58.7846 6.2608 C 56.9552 6.2608 55.4654 4.8599 55.4654 3.131 C 55.4654 1.4021 56.9552 0 58.7846 0 C 60.619 0 62.1088 1.4021 62.1088 3.131 L 62.1088 3.131 Z" fill="#000000"/>				<path d="M 61.6611 15.5583 C 61.1358 15.7151 60.2793 16.043 58.8732 16.6627 L 58.6014 16.7845 L 57.1905 17.3993 L 57.0668 15.9393 L 56.8241 13.1097 L 56.7793 12.5723 L 57.2233 12.2323 C 58.838 10.9989 60.5898 10.073 62.4436 9.4569 L 62.4436 6.6008 C 62.4315 6.6008 62.4169 6.5996 62.3999 6.5996 C 57.7947 6.5996 53.5267 8.1778 50 10.8711 L 50.2972 15.14 C 51.4995 14.6191 52.7563 14.1731 54.0472 13.8114 C 54.1624 13.7571 54.2898 13.7258 54.4281 13.7258 C 54.8758 13.7258 55.2397 14.0477 55.2846 14.46 L 55.287 14.46 L 55.7104 22 L 61.9353 22 L 61.6611 15.5583 Z" fill="#000000"/>				<path d="M 69.0348 6.3295 C 69.0348 7.7184 67.8374 8.8529 66.3573 8.8529 C 64.876 8.8529 63.6798 7.7184 63.6798 6.3295 C 63.6798 4.9322 64.876 3.8038 66.3573 3.8038 C 67.8374 3.8038 69.0348 4.9322 69.0348 6.3295 L 69.0348 6.3295 Z" fill="#ffffff"/>				<path d="M 58.1441 15.8597 C 58.9533 15.5053 61.342 14.4045 62.3126 14.4045 C 62.5091 14.4045 62.645 14.4455 62.7008 14.5528 L 63.0174 22 L 64.967 22 L 66.4519 22 L 67.9369 22 L 69.8877 22 L 70.2031 14.5528 C 70.2589 14.4455 70.396 14.4045 70.5901 14.4045 C 71.5594 14.4045 73.9518 15.5053 74.761 15.8597 L 75 13.0265 C 72.923 11.4402 70.5294 10.3358 67.9369 9.856 C 67.4298 9.762 66.9372 9.7186 66.4519 9.7186 C 65.9654 9.7186 65.4741 9.762 64.967 9.856 C 62.3769 10.3358 59.9796 11.4402 57.9027 13.0265 L 58.1441 15.8597 Z" fill="#ffffff"/>			</g>			<g>				<path d="M 94.1214 18.0131 L 80.8786 18.0131 L 80.8786 2.1646 L 94.1214 2.1646 L 94.1214 18.0131 ZM 95.0225 0 L 79.9775 0 C 79.07 0 78.3333 0.7036 78.3333 1.5688 L 78.3333 18.6089 C 78.3333 19.473 79.07 20.1766 79.9775 20.1766 L 95.0225 20.1766 C 95.9268 20.1766 96.6667 19.473 96.6667 18.6089 L 96.6667 1.5688 C 96.6667 0.7036 95.9268 0 95.0225 0 L 95.0225 0 Z" fill="#000000"/>				<path d="M 86.6458 21.6598 L 83.9414 16.6777 C 83.9414 16.6777 82.8895 15.0023 83.9414 14.4783 C 83.9414 14.4783 84.9932 13.5655 86.2959 16.0101 L 86.2959 8.9215 C 86.2959 8.9215 86.2959 7.7679 87.6976 7.7679 C 87.6976 7.7679 88.8517 7.9105 88.8517 9.2543 L 88.8517 12.8482 C 88.8517 12.8482 90.8057 12.3221 91.0534 14.1867 C 91.0534 14.1867 92.9589 13.8994 93.4606 15.4354 C 93.4637 15.4396 93.9802 15.4967 94.0223 15.503 C 95.188 15.7122 95.1237 16.944 95.0794 17.8356 L 95.0794 20.9922 C 95.0794 20.9922 94.8623 22 93.6587 22 L 86.8977 22 L 86.6458 21.6598 Z" fill="#ffffff"/>			</g>			<g>				<path d="M 120.1958 13.5914 L 104.9751 13.5914 L 104.9751 3.7687 L 120.1958 3.7687 L 120.1958 13.5914 ZM 120.3006 1.9814 L 104.8722 1.9814 C 103.8762 1.9814 103.0595 2.7863 103.0595 3.7687 L 103.0595 13.5046 C 103.0595 14.487 103.8762 15.2938 104.8722 15.2938 L 120.3006 15.2938 C 121.2976 15.2938 122.1161 14.487 122.1161 13.5046 L 122.1161 3.7687 C 122.1161 2.7863 121.2976 1.9814 120.3006 1.9814 L 120.3006 1.9814 Z" fill="#000000"/>				<path d="M 123.0536 17.6544 C 122.4456 16.8804 121.1257 16.2435 120.1278 16.2435 L 117.1256 16.2435 L 113.4937 16.2435 L 111.5063 16.2435 L 107.8782 16.2435 L 104.8722 16.2435 C 103.8733 16.2435 102.5592 16.8804 101.9483 17.6544 L 100.3094 19.7448 C 99.7004 20.5207 100.0186 21.1538 101.0165 21.1538 L 107.8782 21.1538 L 111.5063 21.1538 L 113.4937 21.1538 L 117.1256 21.1538 L 123.9854 21.1538 C 124.9833 21.1538 125.2996 20.5207 124.6888 19.7448 L 123.0536 17.6544 Z" fill="#000000"/>				<path d="M 112.0048 4.4404 C 112.7327 4.6682 113.4219 5.0484 114.0469 5.5194 C 114.35 5.7665 114.6908 6.0058 114.9306 6.3185 C 115.0949 6.6756 115.2959 7.0114 115.4489 7.3724 C 116.0918 8.8084 116.3108 10.451 116.0635 12.0029 L 114.2584 11.4586 C 114.8588 10.2445 115.4885 9.096 116.1655 7.9437 C 116.8395 6.7991 117.5504 5.67 118.3322 4.5755 C 119.111 3.4792 119.9494 2.4099 120.9379 1.4255 L 121.3174 1.0588 C 121.4335 0.9275 121.5525 0.7885 121.7309 0.7191 C 122.0651 0.5666 122.4078 0.416 122.759 0.2944 C 123.4595 0.057 124.2375 -0.0858 124.9371 0.057 C 124.3168 0.3986 123.8806 0.8638 123.4898 1.3502 C 123.2972 1.5934 123.1159 1.8521 122.9488 2.1146 C 122.878 2.2593 122.7505 2.3443 122.6259 2.433 C 122.5126 2.5315 122.405 2.6415 122.2945 2.7496 C 121.425 3.6201 120.6348 4.6161 119.8956 5.6526 C 119.1545 6.6891 118.4653 7.7777 117.8139 8.8837 C 117.1662 9.9897 116.5393 11.1343 115.9842 12.2654 L 115.9785 12.275 C 115.7463 12.7402 115.1779 12.9371 114.7021 12.7093 C 114.316 12.526 114.1149 12.1187 114.1744 11.7211 C 114.3698 10.4993 114.2027 9.2582 113.6985 8.1232 C 113.5683 7.8414 113.4408 7.5557 113.2425 7.3067 C 113.1198 7.0192 113.0584 6.6814 112.9281 6.3687 C 112.6855 5.7337 112.3929 5.0832 112.0048 4.4404 L 112.0048 4.4404 Z" fill="#ffffff"/>			</g>		</g>		<g>			<path d="M 12.2818 13.7536 C 12.5457 14.4987 13.5677 15.3233 15.0124 16.1624 L 15.0124 9.2699 C 13.921 9.8342 11.4575 11.4256 12.2818 13.7536 L 12.2818 13.7536 Z" fill="#000000"/>			<path d="M 8.3316 0 C 4.6538 0 1.6667 2.4269 1.6667 5.4253 L 1.6667 22 L 14.412 22 C 12.4059 21.1054 7.3349 18.5278 7.1772 15.2872 C 6.9974 11.3966 13.4258 8.9517 15.0113 8.4055 L 15.0113 5.4253 L 14.9966 5.4253 C 14.9966 2.4269 12.0127 0 8.3316 0 L 8.3316 0 Z" fill="#ffffff"/>			<path d="M 23.3333 0 C 23.3302 0 23.327 0 23.3239 0 C 19.646 0 16.6652 2.4305 16.6652 5.4253 L 16.6652 16.852 C 18.6177 17.8503 21.0307 18.8389 23.3333 19.6949 L 23.3333 0 Z" fill="#000000"/>		</g>		<g>			<path d="M 45.5076 22 L 48.3333 22 L 48.3333 6.7499 C 47.2802 8.4338 46.1288 10.752 45.5076 12.7877 L 45.5076 22 Z" fill="#ffffff"/>			<path d="M 45.5076 0.0043 L 45.5076 7.1695 C 46.4944 7.106 47.4778 6.9532 48.3333 6.7499 L 48.3333 0 L 45.5076 0.0043 Z" fill="#ffffff"/>			<path d="M 43.8817 8.6313 L 42.3161 6.9936 C 42.9906 7.145 43.7645 7.2098 44.5668 7.2055 L 44.5668 1.3148 L 41.741 1.322 L 41.741 10.2763 L 43.8817 8.6313 Z" fill="#ffffff"/>			<path d="M 41.741 13.3456 L 41.741 22 L 44.5656 22 L 44.5656 11.1759 L 41.741 13.3456 Z" fill="#ffffff"/>			<path d="M 40.8003 10.9986 L 40.8003 5.7379 L 37.9721 5.7379 L 37.9721 13.1697 L 40.8003 10.9986 Z" fill="#ffffff"/>			<path d="M 37.9721 16.2391 L 37.9721 22 L 40.8003 22 L 40.8003 14.0679 L 37.9721 16.2391 Z" fill="#ffffff"/>			<path d="M 37.0302 13.892 L 37.0302 10.3844 L 34.2044 10.3873 L 34.2044 16.0617 L 37.0302 13.892 Z" fill="#000000"/>			<path d="M 34.2044 19.1325 L 34.2044 22 L 37.0302 22 L 37.0302 16.9613 L 34.2044 19.1325 Z" fill="#000000"/>			<path d="M 33.2625 16.7855 L 33.2625 9.2239 L 30.4379 9.2282 L 30.4379 18.9566 L 33.2625 16.7855 Z" fill="#000000"/>			<path d="M 30.4699 22 L 33.2601 22 L 33.2601 19.8562 L 30.4699 22 Z" fill="#000000"/>			<path d="M 29.4936 19.6789 L 29.4936 15.6119 L 26.6667 15.6119 L 26.6667 21.8501 L 29.4936 19.6789 Z" fill="#000000"/>		</g>	</g></svg>