<?xml version="1.0" standalone="no"?><!-- Generator: Adobe Fireworks CS6, Export SVG Extension by Aaron Beall (http://fireworks.abeall.com) . Version: 0.6.1  --><!DOCTYPE svg PUBLIC "-//W3C//DTD SVG 1.1//EN" "http://www.w3.org/Graphics/SVG/1.1/DTD/svg11.dtd"><svg id="Untitled-Page%201" viewBox="0 0 25 22" style="background-color:#ffffff00" version="1.1"	xmlns="http://www.w3.org/2000/svg" xmlns:xlink="http://www.w3.org/1999/xlink" xml:space="preserve"	x="0px" y="0px" width="25px" height="22px">	<g id="NG">		<path d="M 20.1958 13.5914 L 4.9751 13.5914 L 4.9751 3.7687 L 20.1958 3.7687 L 20.1958 13.5914 ZM 20.3006 1.9814 L 4.8722 1.9814 C 3.8762 1.9814 3.0595 2.7863 3.0595 3.7687 L 3.0595 13.5046 C 3.0595 14.487 3.8762 15.2938 4.8722 15.2938 L 20.3006 15.2938 C 21.2976 15.2938 22.1161 14.487 22.1161 13.5046 L 22.1161 3.7687 C 22.1161 2.7863 21.2976 1.9814 20.3006 1.9814 L 20.3006 1.9814 Z" fill="#000000"/>		<path d="M 23.0536 17.6544 C 22.4456 16.8804 21.1257 16.2435 20.1278 16.2435 L 17.1256 16.2435 L 13.4937 16.2435 L 11.5063 16.2435 L 7.8782 16.2435 L 4.8722 16.2435 C 3.8733 16.2435 2.5592 16.8804 1.9483 17.6544 L 0.3094 19.7448 C -0.2996 20.5207 0.0186 21.1538 1.0165 21.1538 L 7.8782 21.1538 L 11.5063 21.1538 L 13.4937 21.1538 L 17.1256 21.1538 L 23.9854 21.1538 C 24.9833 21.1538 25.2996 20.5207 24.6888 19.7448 L 23.0536 17.6544 Z" fill="#000000"/>		<path d="M 12.0048 4.4404 C 12.7327 4.6682 13.4219 5.0484 14.0469 5.5194 C 14.35 5.7665 14.6908 6.0058 14.9306 6.3185 C 15.0949 6.6756 15.2959 7.0114 15.4489 7.3724 C 16.0918 8.8084 16.3108 10.451 16.0635 12.0029 L 14.2584 11.4586 C 14.8588 10.2445 15.4885 9.096 16.1655 7.9437 C 16.8395 6.7991 17.5504 5.67 18.3322 4.5755 C 19.111 3.4792 19.9494 2.4099 20.9379 1.4255 L 21.3174 1.0588 C 21.4335 0.9275 21.5525 0.7885 21.7309 0.7191 C 22.0651 0.5666 22.4078 0.416 22.759 0.2944 C 23.4595 0.057 24.2375 -0.0858 24.9371 0.057 C 24.3168 0.3986 23.8806 0.8638 23.4898 1.3502 C 23.2972 1.5934 23.1159 1.8521 22.9488 2.1146 C 22.878 2.2593 22.7505 2.3443 22.6259 2.433 C 22.5126 2.5315 22.405 2.6415 22.2945 2.7496 C 21.425 3.6201 20.6348 4.6161 19.8956 5.6526 C 19.1545 6.6891 18.4653 7.7777 17.8139 8.8837 C 17.1662 9.9897 16.5393 11.1343 15.9842 12.2654 L 15.9785 12.275 C 15.7463 12.7402 15.1779 12.9371 14.7021 12.7093 C 14.316 12.526 14.1149 12.1187 14.1744 11.7211 C 14.3698 10.4993 14.2027 9.2582 13.6985 8.1232 C 13.5683 7.8414 13.4408 7.5557 13.2425 7.3067 C 13.1198 7.0192 13.0584 6.6814 12.9281 6.3687 C 12.6855 5.7337 12.3929 5.0832 12.0048 4.4404 L 12.0048 4.4404 Z" fill="#ffffff"/>	</g></svg>