<?xml version="1.0" standalone="no"?><!-- Generator: Adobe Fireworks CS6, Export SVG Extension by Aaron Beall (http://fireworks.abeall.com) . Version: 0.6.1  --><!DOCTYPE svg PUBLIC "-//W3C//DTD SVG 1.1//EN" "http://www.w3.org/Graphics/SVG/1.1/DTD/svg11.dtd"><svg id="Untitled-Page%201" viewBox="0 0 25 22" style="background-color:#ffffff00" version="1.1"	xmlns="http://www.w3.org/2000/svg" xmlns:xlink="http://www.w3.org/1999/xlink" xml:space="preserve"	x="0px" y="0px" width="25px" height="22px">	<g id="DD">		<path d="M 20.5076 22 L 23.3333 22 L 23.3333 6.7499 C 22.2802 8.4338 21.1288 10.752 20.5076 12.7877 L 20.5076 22 Z" fill="#ffffff"/>		<path d="M 20.5076 0.0043 L 20.5076 7.1695 C 21.4944 7.106 22.4778 6.9532 23.3333 6.7499 L 23.3333 0 L 20.5076 0.0043 Z" fill="#ffffff"/>		<path d="M 18.8817 8.6313 L 17.3161 6.9936 C 17.9906 7.145 18.7645 7.2098 19.5668 7.2055 L 19.5668 1.3148 L 16.741 1.322 L 16.741 10.2763 L 18.8817 8.6313 Z" fill="#ffffff"/>		<path d="M 16.741 13.3456 L 16.741 22 L 19.5656 22 L 19.5656 11.1759 L 16.741 13.3456 Z" fill="#ffffff"/>		<path d="M 15.8003 10.9986 L 15.8003 5.7379 L 12.9721 5.7379 L 12.9721 13.1697 L 15.8003 10.9986 Z" fill="#ffffff"/>		<path d="M 12.9721 16.2391 L 12.9721 22 L 15.8003 22 L 15.8003 14.0679 L 12.9721 16.2391 Z" fill="#ffffff"/>		<path d="M 12.0302 13.892 L 12.0302 10.3844 L 9.2044 10.3873 L 9.2044 16.0617 L 12.0302 13.892 Z" fill="#000000"/>		<path d="M 9.2044 19.1325 L 9.2044 22 L 12.0302 22 L 12.0302 16.9613 L 9.2044 19.1325 Z" fill="#000000"/>		<path d="M 8.2625 16.7855 L 8.2625 9.2239 L 5.4379 9.2282 L 5.4379 18.9566 L 8.2625 16.7855 Z" fill="#000000"/>		<path d="M 5.4699 22 L 8.2601 22 L 8.2601 19.8562 L 5.4699 22 Z" fill="#000000"/>		<path d="M 4.4936 19.6789 L 4.4936 15.6119 L 1.6667 15.6119 L 1.6667 21.8501 L 4.4936 19.6789 Z" fill="#000000"/>	</g></svg>