<?xml version="1.0" standalone="no"?><!-- Generator: Adobe Fireworks CS6, Export SVG Extension by Aaron Beall (http://fireworks.abeall.com) . Version: 0.6.1  --><!DOCTYPE svg PUBLIC "-//W3C//DTD SVG 1.1//EN" "http://www.w3.org/Graphics/SVG/1.1/DTD/svg11.dtd"><svg id="Untitled-Page%201" viewBox="0 0 25 22" style="background-color:#ffffff00" version="1.1"	xmlns="http://www.w3.org/2000/svg" xmlns:xlink="http://www.w3.org/1999/xlink" xml:space="preserve"	x="0px" y="0px" width="25px" height="22px">	<g id="OL">		<path d="M 19.1214 19.0131 L 5.8786 19.0131 L 5.8786 3.1646 L 19.1214 3.1646 L 19.1214 19.0131 ZM 20.0225 1 L 4.9775 1 C 4.07 1 3.3333 1.7036 3.3333 2.5688 L 3.3333 19.6089 C 3.3333 20.473 4.07 21.1766 4.9775 21.1766 L 20.0225 21.1766 C 20.9268 21.1766 21.6667 20.473 21.6667 19.6089 L 21.6667 2.5688 C 21.6667 1.7036 20.9268 1 20.0225 1 L 20.0225 1 Z" fill="#000000"/>		<path d="M 11.6458 22.6598 L 8.9414 17.6777 C 8.9414 17.6777 7.8895 16.0023 8.9414 15.4783 C 8.9414 15.4783 9.9932 14.5655 11.2959 17.0101 L 11.2959 9.9215 C 11.2959 9.9215 11.2959 8.7679 12.6976 8.7679 C 12.6976 8.7679 13.8517 8.9105 13.8517 10.2543 L 13.8517 13.8482 C 13.8517 13.8482 15.8057 13.3221 16.0534 15.1867 C 16.0534 15.1867 17.9589 14.8994 18.4606 16.4354 C 18.4637 16.4396 18.9802 16.4967 19.0223 16.503 C 20.188 16.7122 20.1237 17.944 20.0794 18.8356 L 20.0794 21.9922 C 20.0794 21.9922 19.8623 23 18.6587 23 L 11.8977 23 L 11.6458 22.6598 Z" fill="#ffffff"/>	</g></svg>