<?xml version="1.0" standalone="no"?><!-- Generator: Adobe Fireworks CS6, Export SVG Extension by Aaron Beall (http://fireworks.abeall.com) . Version: 0.6.1  --><!DOCTYPE svg PUBLIC "-//W3C//DTD SVG 1.1//EN" "http://www.w3.org/Graphics/SVG/1.1/DTD/svg11.dtd"><svg id="Untitled-Page%201" viewBox="0 0 25 22" style="background-color:#ffffff00" version="1.1"	xmlns="http://www.w3.org/2000/svg" xmlns:xlink="http://www.w3.org/1999/xlink" xml:space="preserve"	x="0px" y="0px" width="25px" height="22px">	<g id="Layer%201">		<g id="CC">			<path d="M 12.2818 13.7536 C 12.5457 14.4987 13.5677 15.3233 15.0124 16.1624 L 15.0124 9.2699 C 13.921 9.8342 11.4575 11.4256 12.2818 13.7536 L 12.2818 13.7536 Z" fill="#000000"/>			<path d="M 8.3316 0 C 4.6538 0 1.6667 2.4269 1.6667 5.4253 L 1.6667 22 L 14.412 22 C 12.4059 21.1054 7.3349 18.5278 7.1772 15.2872 C 6.9974 11.3966 13.4258 8.9517 15.0113 8.4055 L 15.0113 5.4253 L 14.9966 5.4253 C 14.9966 2.4269 12.0127 0 8.3316 0 L 8.3316 0 Z" fill="#ffffff"/>			<path d="M 23.3333 0 C 23.3302 0 23.327 0 23.3239 0 C 19.646 0 16.6652 2.4305 16.6652 5.4253 L 16.6652 16.852 C 18.6177 17.8503 21.0307 18.8389 23.3333 19.6949 L 23.3333 0 Z" fill="#000000"/>		</g>		<g id="DD" visibility="hidden">			<path d="M 20.5076 22 L 23.3333 22 L 23.3333 6.7499 C 22.2802 8.4338 21.1288 10.752 20.5076 12.7877 L 20.5076 22 Z" fill="#ffffff"/>			<path d="M 20.5076 0.0043 L 20.5076 7.1695 C 21.4944 7.106 22.4778 6.9532 23.3333 6.7499 L 23.3333 0 L 20.5076 0.0043 Z" fill="#ffffff"/>			<path d="M 18.8817 8.6313 L 17.3161 6.9936 C 17.9906 7.145 18.7645 7.2098 19.5668 7.2055 L 19.5668 1.3148 L 16.741 1.322 L 16.741 10.2763 L 18.8817 8.6313 Z" fill="#ffffff"/>			<path d="M 16.741 13.3456 L 16.741 22 L 19.5656 22 L 19.5656 11.1759 L 16.741 13.3456 Z" fill="#ffffff"/>			<path d="M 15.8003 10.9986 L 15.8003 5.7379 L 12.9721 5.7379 L 12.9721 13.1697 L 15.8003 10.9986 Z" fill="#ffffff"/>			<path d="M 12.9721 16.2391 L 12.9721 22 L 15.8003 22 L 15.8003 14.0679 L 12.9721 16.2391 Z" fill="#ffffff"/>			<path d="M 12.0302 13.892 L 12.0302 10.3844 L 9.2044 10.3873 L 9.2044 16.0617 L 12.0302 13.892 Z" fill="#000000"/>			<path d="M 9.2044 19.1325 L 9.2044 22 L 12.0302 22 L 12.0302 16.9613 L 9.2044 19.1325 Z" fill="#000000"/>			<path d="M 8.2625 16.7855 L 8.2625 9.2239 L 5.4379 9.2282 L 5.4379 18.9566 L 8.2625 16.7855 Z" fill="#000000"/>			<path d="M 5.4699 22 L 8.2601 22 L 8.2601 19.8562 L 5.4699 22 Z" fill="#000000"/>			<path d="M 4.4936 19.6789 L 4.4936 15.6119 L 1.6667 15.6119 L 1.6667 21.8501 L 4.4936 19.6789 Z" fill="#000000"/>		</g>		<g id="EE" visibility="hidden">			<path d="M 12.1088 4.131 C 12.1088 5.8599 10.619 7.2608 8.7846 7.2608 C 6.9552 7.2608 5.4654 5.8599 5.4654 4.131 C 5.4654 2.4021 6.9552 1 8.7846 1 C 10.619 1 12.1088 2.4021 12.1088 4.131 L 12.1088 4.131 Z" fill="#000000"/>			<path d="M 11.6611 16.5583 C 11.1358 16.7151 10.2793 17.043 8.8732 17.6627 L 8.6014 17.7845 L 7.1905 18.3993 L 7.0668 16.9393 L 6.8241 14.1097 L 6.7793 13.5723 L 7.2233 13.2323 C 8.838 11.9989 10.5898 11.073 12.4436 10.4569 L 12.4436 7.6008 C 12.4315 7.6008 12.4169 7.5996 12.3999 7.5996 C 7.7947 7.5996 3.5267 9.1778 0 11.8711 L 0.2972 16.14 C 1.4995 15.6191 2.7563 15.1731 4.0472 14.8114 C 4.1624 14.7571 4.2898 14.7258 4.4281 14.7258 C 4.8758 14.7258 5.2397 15.0477 5.2846 15.46 L 5.287 15.46 L 5.7104 23 L 11.9353 23 L 11.6611 16.5583 Z" fill="#000000"/>			<path d="M 19.0348 6.3295 C 19.0348 7.7184 17.8374 8.8529 16.3573 8.8529 C 14.876 8.8529 13.6798 7.7184 13.6798 6.3295 C 13.6798 4.9322 14.876 3.8038 16.3573 3.8038 C 17.8374 3.8038 19.0348 4.9322 19.0348 6.3295 L 19.0348 6.3295 Z" fill="#ffffff"/>			<path d="M 8.1441 16.8597 C 8.9533 16.5053 11.342 15.4045 12.3126 15.4045 C 12.5091 15.4045 12.645 15.4455 12.7008 15.5528 L 13.0174 23 L 14.967 23 L 16.4519 23 L 17.9369 23 L 19.8877 23 L 20.2031 15.5528 C 20.2589 15.4455 20.396 15.4045 20.5901 15.4045 C 21.5594 15.4045 23.9518 16.5053 24.761 16.8597 L 25 14.0265 C 22.923 12.4402 20.5294 11.3358 17.9369 10.856 C 17.4298 10.762 16.9372 10.7186 16.4519 10.7186 C 15.9654 10.7186 15.4741 10.762 14.967 10.856 C 12.3769 11.3358 9.9796 12.4402 7.9027 14.0265 L 8.1441 16.8597 Z" fill="#ffffff"/>		</g>		<g id="OL" visibility="hidden">			<path d="M 19.1214 19.0131 L 5.8786 19.0131 L 5.8786 3.1646 L 19.1214 3.1646 L 19.1214 19.0131 ZM 20.0225 1 L 4.9775 1 C 4.07 1 3.3333 1.7036 3.3333 2.5688 L 3.3333 19.6089 C 3.3333 20.473 4.07 21.1766 4.9775 21.1766 L 20.0225 21.1766 C 20.9268 21.1766 21.6667 20.473 21.6667 19.6089 L 21.6667 2.5688 C 21.6667 1.7036 20.9268 1 20.0225 1 L 20.0225 1 Z" fill="#000000"/>			<path d="M 11.6458 22.6598 L 8.9414 17.6777 C 8.9414 17.6777 7.8895 16.0023 8.9414 15.4783 C 8.9414 15.4783 9.9932 14.5655 11.2959 17.0101 L 11.2959 9.9215 C 11.2959 9.9215 11.2959 8.7679 12.6976 8.7679 C 12.6976 8.7679 13.8517 8.9105 13.8517 10.2543 L 13.8517 13.8482 C 13.8517 13.8482 15.8057 13.3221 16.0534 15.1867 C 16.0534 15.1867 17.9589 14.8994 18.4606 16.4354 C 18.4637 16.4396 18.9802 16.4967 19.0223 16.503 C 20.188 16.7122 20.1237 17.944 20.0794 18.8356 L 20.0794 21.9922 C 20.0794 21.9922 19.8623 23 18.6587 23 L 11.8977 23 L 11.6458 22.6598 Z" fill="#ffffff"/>		</g>		<g id="NG" visibility="hidden">			<path d="M 20.1958 13.5914 L 4.9751 13.5914 L 4.9751 3.7687 L 20.1958 3.7687 L 20.1958 13.5914 ZM 20.3006 1.9814 L 4.8722 1.9814 C 3.8762 1.9814 3.0595 2.7863 3.0595 3.7687 L 3.0595 13.5046 C 3.0595 14.487 3.8762 15.2938 4.8722 15.2938 L 20.3006 15.2938 C 21.2976 15.2938 22.1161 14.487 22.1161 13.5046 L 22.1161 3.7687 C 22.1161 2.7863 21.2976 1.9814 20.3006 1.9814 L 20.3006 1.9814 Z" fill="#000000"/>			<path d="M 23.0536 17.6544 C 22.4456 16.8804 21.1257 16.2435 20.1278 16.2435 L 17.1256 16.2435 L 13.4937 16.2435 L 11.5063 16.2435 L 7.8782 16.2435 L 4.8722 16.2435 C 3.8733 16.2435 2.5592 16.8804 1.9483 17.6544 L 0.3094 19.7448 C -0.2996 20.5207 0.0186 21.1538 1.0165 21.1538 L 7.8782 21.1538 L 11.5063 21.1538 L 13.4937 21.1538 L 17.1256 21.1538 L 23.9854 21.1538 C 24.9833 21.1538 25.2996 20.5207 24.6888 19.7448 L 23.0536 17.6544 Z" fill="#000000"/>			<path d="M 12.0048 4.4404 C 12.7327 4.6682 13.4219 5.0484 14.0469 5.5194 C 14.35 5.7665 14.6908 6.0058 14.9306 6.3185 C 15.0949 6.6756 15.2959 7.0114 15.4489 7.3724 C 16.0918 8.8084 16.3108 10.451 16.0635 12.0029 L 14.2584 11.4586 C 14.8588 10.2445 15.4885 9.096 16.1655 7.9437 C 16.8395 6.7991 17.5504 5.67 18.3322 4.5755 C 19.111 3.4792 19.9494 2.4099 20.9379 1.4255 L 21.3174 1.0588 C 21.4335 0.9275 21.5525 0.7885 21.7309 0.7191 C 22.0651 0.5666 22.4078 0.416 22.759 0.2944 C 23.4595 0.057 24.2375 -0.0858 24.9371 0.057 C 24.3168 0.3986 23.8806 0.8638 23.4898 1.3502 C 23.2972 1.5934 23.1159 1.8521 22.9488 2.1146 C 22.878 2.2593 22.7505 2.3443 22.6259 2.433 C 22.5126 2.5315 22.405 2.6415 22.2945 2.7496 C 21.425 3.6201 20.6348 4.6161 19.8956 5.6526 C 19.1545 6.6891 18.4653 7.7777 17.8139 8.8837 C 17.1662 9.9897 16.5393 11.1343 15.9842 12.2654 L 15.9785 12.275 C 15.7463 12.7402 15.1779 12.9371 14.7021 12.7093 C 14.316 12.526 14.1149 12.1187 14.1744 11.7211 C 14.3698 10.4993 14.2027 9.2582 13.6985 8.1232 C 13.5683 7.8414 13.4408 7.5557 13.2425 7.3067 C 13.1198 7.0192 13.0584 6.6814 12.9281 6.3687 C 12.6855 5.7337 12.3929 5.0832 12.0048 4.4404 L 12.0048 4.4404 Z" fill="#ffffff"/>		</g>	</g></svg>