<?xml version="1.0" standalone="no"?><!-- Generator: Adobe Fireworks CS6, Export SVG Extension by Aaron Beall (http://fireworks.abeall.com) . Version: 0.6.1  --><!DOCTYPE svg PUBLIC "-//W3C//DTD SVG 1.1//EN" "http://www.w3.org/Graphics/SVG/1.1/DTD/svg11.dtd"><svg id="Untitled-Page%201" viewBox="0 0 25 22" style="background-color:#ffffff00" version="1.1"	xmlns="http://www.w3.org/2000/svg" xmlns:xlink="http://www.w3.org/1999/xlink" xml:space="preserve"	x="0px" y="0px" width="25px" height="22px">	<g id="EE">		<path d="M 12.1088 4.131 C 12.1088 5.8599 10.619 7.2608 8.7846 7.2608 C 6.9552 7.2608 5.4654 5.8599 5.4654 4.131 C 5.4654 2.4021 6.9552 1 8.7846 1 C 10.619 1 12.1088 2.4021 12.1088 4.131 L 12.1088 4.131 Z" fill="#000000"/>		<path d="M 11.6611 16.5583 C 11.1358 16.7151 10.2793 17.043 8.8732 17.6627 L 8.6014 17.7845 L 7.1905 18.3993 L 7.0668 16.9393 L 6.8241 14.1097 L 6.7793 13.5723 L 7.2233 13.2323 C 8.838 11.9989 10.5898 11.073 12.4436 10.4569 L 12.4436 7.6008 C 12.4315 7.6008 12.4169 7.5996 12.3999 7.5996 C 7.7947 7.5996 3.5267 9.1778 0 11.8711 L 0.2972 16.14 C 1.4995 15.6191 2.7563 15.1731 4.0472 14.8114 C 4.1624 14.7571 4.2898 14.7258 4.4281 14.7258 C 4.8758 14.7258 5.2397 15.0477 5.2846 15.46 L 5.287 15.46 L 5.7104 23 L 11.9353 23 L 11.6611 16.5583 Z" fill="#000000"/>		<path d="M 19.0348 6.3295 C 19.0348 7.7184 17.8374 8.8529 16.3573 8.8529 C 14.876 8.8529 13.6798 7.7184 13.6798 6.3295 C 13.6798 4.9322 14.876 3.8038 16.3573 3.8038 C 17.8374 3.8038 19.0348 4.9322 19.0348 6.3295 L 19.0348 6.3295 Z" fill="#ffffff"/>		<path d="M 8.1441 16.8597 C 8.9533 16.5053 11.342 15.4045 12.3126 15.4045 C 12.5091 15.4045 12.645 15.4455 12.7008 15.5528 L 13.0174 23 L 14.967 23 L 16.4519 23 L 17.9369 23 L 19.8877 23 L 20.2031 15.5528 C 20.2589 15.4455 20.396 15.4045 20.5901 15.4045 C 21.5594 15.4045 23.9518 16.5053 24.761 16.8597 L 25 14.0265 C 22.923 12.4402 20.5294 11.3358 17.9369 10.856 C 17.4298 10.762 16.9372 10.7186 16.4519 10.7186 C 15.9654 10.7186 15.4741 10.762 14.967 10.856 C 12.3769 11.3358 9.9796 12.4402 7.9027 14.0265 L 8.1441 16.8597 Z" fill="#ffffff"/>	</g></svg>